<?xml version="1.0" encoding="UTF-8" standalone="no"?>
<!-- Created with Inkscape (http://www.inkscape.org/) -->

<svg
   xmlns:dc="http://purl.org/dc/elements/1.1/"
   xmlns:cc="http://creativecommons.org/ns#"
   xmlns:rdf="http://www.w3.org/1999/02/22-rdf-syntax-ns#"
   xmlns:svg="http://www.w3.org/2000/svg"
   xmlns="http://www.w3.org/2000/svg"
   xmlns:sodipodi="http://sodipodi.sourceforge.net/DTD/sodipodi-0.dtd"
   xmlns:inkscape="http://www.inkscape.org/namespaces/inkscape"
   width="210mm"
   height="297mm"
   viewBox="0 0 210 297"
   version="1.1"
   id="svg8"
   inkscape:version="0.92.3 (unknown)"
   sodipodi:docname="donatttt.svg">
  <defs
     id="defs2" />
  <sodipodi:namedview
     id="base"
     pagecolor="#ffffff"
     bordercolor="#666666"
     borderopacity="1.0"
     inkscape:pageopacity="0.0"
     inkscape:pageshadow="2"
     inkscape:zoom="0.850808"
     inkscape:cx="350.7287"
     inkscape:cy="636.4291"
     inkscape:document-units="mm"
     inkscape:current-layer="layer1"
     showgrid="false"
     inkscape:snap-midpoints="false"
     inkscape:measure-start="0,0"
     inkscape:measure-end="0,0"
     inkscape:snap-nodes="false"
     inkscape:window-width="1366"
     inkscape:window-height="719"
     inkscape:window-x="0"
     inkscape:window-y="25"
     inkscape:window-maximized="1" />
  <metadata
     id="metadata5">
    <rdf:RDF>
      <cc:Work
         rdf:about="">
        <dc:format>image/svg+xml</dc:format>
        <dc:type
           rdf:resource="http://purl.org/dc/dcmitype/StillImage" />
        <dc:title></dc:title>
      </cc:Work>
    </rdf:RDF>
  </metadata>
  <g
     inkscape:label="Layer 1"
     inkscape:groupmode="layer"
     id="layer1">
    <g
       id="g4977">
      <path
         id="path4524"
         d="m 106.23451,85.647119 c -0.41947,9.15e-4 -0.83889,0.0063 -1.25825,0.01608 -32.333089,-0.278161 -59.930249,33.021591 -53.415839,64.838321 4.71459,28.68591 34.525856,51.22408 63.527799,45.60679 27.53707,-4.31056 50.13167,-31.38673 46.76226,-59.58149 -0.63892,-7.59224 -2.9871,-14.96079 -6.64553,-21.62424 a 10.621036,10.621036 0 0 1 -6.38772,-2.48297 10.621036,10.621036 0 0 1 -3.66302,-9.58337 18.015429,18.015429 0 0 1 -21.4263,-1.33376 18.015429,18.015429 0 0 1 -6.32919,-14.942514 c -2.41921,-0.452194 -4.88731,-0.72278 -7.39172,-0.793996 -1.25573,-0.08285 -2.5141,-0.121265 -3.77249,-0.118854 z m 0.93876,35.192341 c 15.75382,0.27449 25.02635,22.60693 13.72091,33.86529 -8.32318,9.92934 -26.841364,8.51636 -32.163799,-3.85203 -6.18707,-11.2927 0.636425,-28.02987 13.994809,-29.68664 1.21737,-0.22147 2.45553,-0.33018 3.69296,-0.3226 0.25327,-0.007 0.50506,-0.008 0.75512,-0.004 z"
         style="opacity:1;fill:#ff7f2a;stroke:#999999;stroke-width:0.17956769"
         inkscape:connector-curvature="0" />
      <path
         id="path4564"
         d="m 102.58534,77.527528 c -28.026549,1.421077 -53.03499,24.186932 -56.606132,52.202282 -0.376084,2.43138 -0.04069,4.40551 -0.111705,5.86807 l 0.0018,-0.0116 c -0.324921,6.15491 0.569741,10.25177 2.867683,12.97294 2.297942,2.72116 5.643485,3.30154 8.291616,3.30154 1.830878,0 3.145428,-1.31428 3.77964,-2.35384 0.634211,-1.03955 0.987506,-2.11596 1.323924,-3.30869 0.672834,-2.38546 1.169452,-5.24402 1.795318,-8.02129 0.625866,-2.77728 1.404111,-5.45608 2.314968,-7.14195 0.910857,-1.68587 1.449158,-2.07905 2.330607,-2.07905 0.797485,0 1.029106,0.14698 1.200602,0.2806 0.171497,0.13362 0.384206,0.39331 0.596503,1.00802 0.424597,1.22943 0.560972,3.6348 0.666653,6.22821 0.105681,2.59342 0.164452,5.41165 1.393629,8.0691 1.229176,2.65746 4.320534,4.79109 8.104398,4.68802 3.822753,-0.10413 6.696866,-2.3464 8.296532,-4.82832 1.599665,-2.48191 2.446928,-5.17694 3.521379,-7.43909 a 2.8599261,2.8599261 0 0 0 0.232791,-0.72429 c 0.625213,-3.51333 2.312204,-6.83756 4.683109,-9.13119 2.370903,-2.29363 5.320395,-3.61328 8.989105,-3.40788 a 2.8599261,2.8599261 0 0 0 0.20956,0.003 c 3.451,-0.059 6.20827,1.2879 8.44398,3.57008 2.22387,2.2701 3.81622,5.51396 4.46506,8.93548 0.15277,3.38345 0.40665,6.63942 1.6635,9.5025 1.30097,2.96356 4.38029,5.41276 8.22728,5.41276 1.79118,0 3.61392,-0.77074 4.72198,-2.02498 1.10806,-1.25425 1.56706,-2.70508 1.84759,-4.12905 0.56108,-2.84793 0.428,-5.94442 0.57595,-8.87427 0.14796,-2.92984 0.60177,-5.56807 1.55002,-7.11336 0.94824,-1.54528 2.10782,-2.48431 5.65404,-2.48431 3.02126,0 4.22148,0.93811 5.35021,2.71219 1.12873,1.77409 1.82072,4.6311 2.20371,7.69601 0.38299,3.0649 0.4879,6.25621 0.95753,8.99938 0.23481,1.37157 0.52196,2.65546 1.28327,3.91636 0.76129,1.26091 2.47844,2.48988 4.24209,2.48208 1.72545,-0.008 3.39708,-0.36003 4.81001,-1.27835 1.41293,-0.91831 2.39761,-2.33615 2.98028,-3.85381 1.16534,-3.03533 1.20932,-6.64036 1.13671,-11.47833 a 2.8599261,2.8599261 0 0 0 -0.004,-0.0929 c -0.36258,-7.54563 -1.89551,-15.06918 -4.76175,-22.04023 a 10.621036,12.127028 38.898312 0 1 -15.55957,2.03482 10.621036,12.127028 38.898312 0 1 -3.20324,-10.15262 18.015429,20.569896 38.898312 0 1 -22.53218,0.0366 18.015429,20.569896 38.898312 0 1 -4.00618,-21.726116 10.621036,12.127028 38.898312 0 1 -10.87244,-1.321243 10.621036,12.127028 38.898312 0 1 -3.05624,-4.903388 z"
         style="color:#000000;font-style:normal;font-variant:normal;font-weight:normal;font-stretch:normal;font-size:medium;line-height:normal;font-family:sans-serif;font-variant-ligatures:normal;font-variant-position:normal;font-variant-caps:normal;font-variant-numeric:normal;font-variant-alternates:normal;font-feature-settings:normal;text-indent:0;text-align:start;text-decoration:none;text-decoration-line:none;text-decoration-style:solid;text-decoration-color:#000000;letter-spacing:normal;word-spacing:normal;text-transform:none;writing-mode:lr-tb;direction:ltr;text-orientation:mixed;dominant-baseline:auto;baseline-shift:baseline;text-anchor:start;white-space:normal;shape-padding:0;clip-rule:nonzero;display:inline;overflow:visible;visibility:visible;opacity:1;isolation:auto;mix-blend-mode:normal;color-interpolation:sRGB;color-interpolation-filters:linearRGB;solid-color:#000000;solid-opacity:1;vector-effect:none;fill:#2b1100;fill-opacity:1;fill-rule:nonzero;stroke:none;stroke-width:5.71928024;stroke-linecap:butt;stroke-linejoin:round;stroke-miterlimit:4;stroke-dasharray:none;stroke-dashoffset:0;stroke-opacity:1;color-rendering:auto;image-rendering:auto;shape-rendering:auto;text-rendering:auto;enable-background:accumulate"
         inkscape:connector-curvature="0" />
      <path
         id="path4529"
         d="M 100.37761,80.555619 C 74.7507,83.045021 52.061946,104.37883 48.80623,130.14669 c -0.2912,1.85813 0.0088,3.72378 -0.08177,5.58971 -0.611776,11.58873 3.701607,13.26426 8.30368,13.26426 4.166061,0 2.943433,-22.90348 11.545351,-22.90348 10.221663,0 0.0047,20.59838 11.882251,20.27484 5.862125,-0.15968 6.960346,-5.67942 9.314383,-10.63562 1.44774,-8.13544 7.697593,-15.39402 16.648025,-14.89292 8.51966,-0.1456 14.31123,6.98772 15.7861,14.89292 0.29352,6.83061 1.23114,12.52701 7.06287,12.52701 9.25925,0 -2.60392,-24.62553 14.35003,-24.62553 15.30324,0 7.73272,25.83297 14.02296,25.80513 5.43904,-0.024 6.22388,-4.20059 6.08121,-13.70661 -0.32426,-6.7473 -1.61863,-13.43995 -3.99233,-19.68148 a 10.621036,13.553756 38.898312 0 1 -15.90005,2.54687 10.621036,13.553756 38.898312 0 1 -2.76804,-10.69193 18.015429,22.989917 38.898312 0 1 -23.57952,1.33465 18.015429,22.989917 38.898312 0 1 -2.94275,-23.044231 10.621036,13.553756 38.898312 0 1 -11.30094,-0.789974 10.621036,13.553756 38.898312 0 1 -2.86008,-4.854686 z"
         style="opacity:1;fill:#552200;stroke-width:0.17956769"
         inkscape:connector-curvature="0" />
      <path
         id="path4619"
         d="m 143.6167,126.49708 c -3.54622,0 -4.7058,0.93902 -5.65404,2.48431 -0.62028,1.01082 -1.02573,2.4939 -1.27567,4.21574 2.59584,8.94543 1.74191,18.74886 -4.0236,26.50126 -11.54258,17.81132 -41.744337,18.32329 -53.0709,0.004 -2.604318,-3.7381 -4.202813,-7.97187 -4.89758,-12.36124 -0.996791,-0.78131 -1.778188,-1.74752 -2.264478,-2.79887 -1.229176,-2.65745 -1.287948,-5.47568 -1.393629,-8.0691 -0.10568,-2.59342 -0.242056,-4.99879 -0.666653,-6.22821 -0.212297,-0.61472 -0.425006,-0.8744 -0.596502,-1.00802 -0.171496,-0.13363 -0.403118,-0.28061 -1.200603,-0.28061 -0.881449,0 -1.41975,0.39318 -2.330607,2.07905 -0.910857,1.68587 -1.689102,4.36467 -2.314967,7.14195 -0.451399,2.00308 -0.836088,4.04606 -1.267625,5.92571 0.22919,4.32637 1.198198,8.64268 3.022281,12.79421 8.989794,22.91757 39.557413,35.90162 61.283873,22.60412 17.7349,-9.4669 27.60491,-32.4087 21.13855,-51.4351 -0.95883,-1.03021 -2.20148,-1.56878 -4.48785,-1.56878 z"
         style="opacity:0.433;fill:#ffffff;stroke:#999999;stroke-width:0.17956769"
         inkscape:connector-curvature="0" />
      <path
         id="path4668"
         d="m 106.29304,97.413644 c -0.2553,0.0014 -0.51053,0.0052 -0.7663,0.01162 -17.270998,-0.04588 -32.536569,12.141586 -39.268215,27.640206 0.98274,-0.44432 2.090825,-0.68531 3.341309,-0.66218 4.146133,0.99007 5.577635,4.44711 5.983351,8.23129 2.898961,-10.54824 10.527756,-19.78376 21.427194,-22.7596 2.905411,-0.8802 5.944931,-1.28392 8.977481,-1.2922 1.5137,-0.0631 2.99721,0.002 4.4454,0.18409 a 18.015429,25.813274 38.898312 0 1 -1.0116,-11.2442 c -1.03755,-0.07708 -2.08092,-0.114807 -3.12862,-0.109023 z m 31.58383,14.015366 a 18.015429,25.813274 38.898312 0 1 -11.355,5.12143 c 3.10891,2.89223 5.7062,6.39969 7.64417,10.24467 0.81872,-1.33854 1.91521,-2.5534 3.40342,-3.596 1.06575,-0.61374 2.17182,-1.01009 3.28948,-1.22026 a 10.621036,15.218272 38.898312 0 1 -2.42667,-9.95289 c -0.18327,-0.20071 -0.36864,-0.39953 -0.5554,-0.59695 z"
         style="opacity:0.44;fill:#ffffff;stroke:#999999;stroke-width:0.17956769"
         inkscape:connector-curvature="0" />
      <rect
         transform="rotate(-28.372687)"
         ry="1.4710169"
         y="141.55443"
         x="-18.553705"
         height="2.9420338"
         width="9.9375372"
         id="rect4719"
         style="opacity:1;fill:#ffff00;fill-opacity:1;stroke:none;stroke-width:0.98331279;stroke-linejoin:round;stroke-miterlimit:4;stroke-dasharray:none;stroke-opacity:1" />
      <rect
         transform="rotate(-28.372686)"
         ry="1.4710169"
         y="127.70303"
         x="-4.5901251"
         height="2.9420338"
         width="9.9375372"
         id="rect4719-2"
         style="opacity:1;fill:#00ffff;fill-opacity:1;stroke:none;stroke-width:0.98331279;stroke-linejoin:round;stroke-miterlimit:4;stroke-dasharray:none;stroke-opacity:1" />
      <rect
         transform="rotate(-28.372686)"
         ry="1.4710169"
         y="124.06422"
         x="20.280628"
         height="2.9420338"
         width="9.9375372"
         id="rect4719-7"
         style="opacity:1;fill:#00ffff;fill-opacity:1;stroke:none;stroke-width:0.98331279;stroke-linejoin:round;stroke-miterlimit:4;stroke-dasharray:none;stroke-opacity:1" />
      <rect
         transform="rotate(-28.372686)"
         ry="1.4710169"
         y="149.6571"
         x="14.453686"
         height="2.9420338"
         width="9.9375372"
         id="rect4719-0"
         style="opacity:1;fill:#00ffff;fill-opacity:1;stroke:none;stroke-width:0.98331279;stroke-linejoin:round;stroke-miterlimit:4;stroke-dasharray:none;stroke-opacity:1" />
      <rect
         transform="rotate(-28.372686)"
         ry="1.4710169"
         y="153.30925"
         x="41.221138"
         height="2.9420338"
         width="9.9375372"
         id="rect4719-9"
         style="opacity:1;fill:#ffff00;fill-opacity:1;stroke:none;stroke-width:0.98331279;stroke-linejoin:round;stroke-miterlimit:4;stroke-dasharray:none;stroke-opacity:1" />
      <rect
         transform="rotate(-28.372686)"
         ry="1.4710169"
         y="173.88052"
         x="46.101585"
         height="2.9420338"
         width="9.9375372"
         id="rect4719-3"
         style="opacity:1;fill:#00ffff;fill-opacity:1;stroke:none;stroke-width:0.98331279;stroke-linejoin:round;stroke-miterlimit:4;stroke-dasharray:none;stroke-opacity:1" />
      <rect
         transform="rotate(-28.372686)"
         ry="1.4710169"
         y="186.04478"
         x="73.025757"
         height="2.9420338"
         width="9.9375372"
         id="rect4719-6"
         style="opacity:1;fill:#ffff00;fill-opacity:1;stroke:none;stroke-width:0.98331279;stroke-linejoin:round;stroke-miterlimit:4;stroke-dasharray:none;stroke-opacity:1" />
      <rect
         inkscape:transform-center-y="37.162304"
         inkscape:transform-center-x="-65.308901"
         transform="rotate(-28.372686)"
         ry="1.4710169"
         y="129.06459"
         x="43.942944"
         height="2.9420338"
         width="9.9375372"
         id="rect4719-06"
         style="opacity:1;fill:#00ff00;fill-opacity:1;stroke:none;stroke-width:0.98331279;stroke-linejoin:round;stroke-miterlimit:4;stroke-dasharray:none;stroke-opacity:1" />
      <rect
         transform="rotate(-147.45107)"
         ry="1.4710169"
         y="-47.350624"
         x="-136.98289"
         height="2.9420338"
         width="9.9375372"
         id="rect4719-26"
         style="opacity:1;fill:#ffff00;fill-opacity:1;stroke:none;stroke-width:0.98331279;stroke-linejoin:round;stroke-miterlimit:4;stroke-dasharray:none;stroke-opacity:1" />
      <rect
         transform="rotate(-147.45107)"
         ry="1.4710169"
         y="-32.102032"
         x="-149.16473"
         height="2.9420338"
         width="9.9375372"
         id="rect4719-26-1"
         style="opacity:1;fill:#00ffff;fill-opacity:1;stroke:none;stroke-width:0.98331279;stroke-linejoin:round;stroke-miterlimit:4;stroke-dasharray:none;stroke-opacity:1" />
      <rect
         transform="rotate(-147.45107)"
         ry="1.4710169"
         y="-60.782524"
         x="-130.02771"
         height="2.9420338"
         width="9.9375372"
         id="rect4719-26-8"
         style="opacity:1;fill:#00ff00;fill-opacity:1;stroke:none;stroke-width:0.98331279;stroke-linejoin:round;stroke-miterlimit:4;stroke-dasharray:none;stroke-opacity:1" />
      <rect
         inkscape:transform-center-y="18.429994"
         inkscape:transform-center-x="-6.6168017"
         transform="rotate(157.86029)"
         ry="1.4710169"
         y="-146.90297"
         x="-55.346954"
         height="2.9420338"
         width="9.9375372"
         id="rect4719-26-7"
         style="opacity:1;fill:#00ff00;fill-opacity:1;stroke:none;stroke-width:0.98331279;stroke-linejoin:round;stroke-miterlimit:4;stroke-dasharray:none;stroke-opacity:1" />
      <rect
         transform="rotate(-147.45107)"
         ry="1.4710169"
         y="-26.833357"
         x="-130.91493"
         height="2.9420338"
         width="9.9375372"
         id="rect4719-26-9"
         style="opacity:1;fill:#ffff00;fill-opacity:1;stroke:none;stroke-width:0.98331279;stroke-linejoin:round;stroke-miterlimit:4;stroke-dasharray:none;stroke-opacity:1" />
    </g>
  </g>
</svg>
